psfnormalize.ufo
<glyph name="ExclamationMrk" format="2">
  <advance width="764"/>
  <unicode hex="0021"/>
  <outline>
    <contour>
      <point x="450" y="440" type="line"/>
      <point x="456" y="730"/>
      <point x="451" y="1076"/>
      <point x="490" y="1510" type="curve"/>
      <point x="235" y="1510" type="line"/>
      <point x="273" y="1076"/>
      <point x="268" y="730"/>
      <point x="275" y="440" type="curve"/>
    </contour>
    <contour>
      <point x="225" y="110" type="curve" smooth="yes"/>
      <point x="225" y="36"/>
      <point x="286" y="-25"/>
      <point x="360" y="-25" type="curve" smooth="yes"/>
      <point x="434" y="-25"/>
      <point x="495" y="36"/>
      <point x="495" y="110" type="curve" smooth="yes"/>
      <point x="495" y="184"/>
      <point x="434" y="245"/>
      <point x="360" y="245" type="curve" smooth="yes"/>
      <point x="286" y="245"/>
      <point x="225" y="184"/>
    </contour>
  </outline>
</glyph>
<glyph name="QuotMrk" format="2">
  <advance width="1025"/>
  <unicode hex="0022"/>
  <outline>
    <contour>
      <point x="405" y="1045" type="line"/>
      <point x="410" y="1186"/>
      <point x="416" y="1339"/>
      <point x="445" y="1585" type="curve"/>
      <point x="240" y="1585" type="line"/>
      <point x="271" y="1339"/>
      <point x="276" y="1186"/>
      <point x="280" y="1045" type="curve"/>
    </contour>
    <contour>
      <point x="745" y="1045" type="line"/>
      <point x="750" y="1186"/>
      <point x="756" y="1339"/>
      <point x="785" y="1585" type="curve"/>
      <point x="580" y="1585" type="line"/>
      <point x="611" y="1339"/>
      <point x="616" y="1186"/>
      <point x="620" y="1045" type="curve"/>
    </contour>
  </outline>
</glyph>
<glyph name="DollarSgn" format="2">
  <advance width="1180"/>
  <unicode hex="0024"/>
  <outline>
    <contour>
      <point x="1225" y="1280" type="line"/>
      <point x="1119" y="1337"/>
      <point x="1023" y="1361"/>
      <point x="882" y="1361" type="curve" smooth="yes"/>
      <point x="513" y="1361"/>
      <point x="354" y="1182"/>
      <point x="354" y="992" type="curve" smooth="yes"/>
      <point x="354" y="837"/>
      <point x="446" y="771"/>
      <point x="639" y="650" type="curve" smooth="yes"/>
      <point x="844" y="521"/>
      <point x="919" y="439"/>
      <point x="919" y="357" type="curve" smooth="yes"/>
      <point x="919" y="244"/>
      <point x="826" y="158"/>
      <point x="635" y="158" type="curve" smooth="yes"/>
      <point x="469" y="158"/>
      <point x="314" y="266"/>
      <point x="251" y="347" type="curve"/>
      <point x="163" y="162" type="line"/>
      <point x="304" y="58"/>
      <point x="453" y="0"/>
      <point x="606" y="0" type="curve" smooth="yes"/>
      <point x="872" y="0"/>
      <point x="1102" y="119"/>
      <point x="1102" y="381" type="curve" smooth="yes"/>
      <point x="1102" y="528"/>
      <point x="981" y="657"/>
      <point x="801" y="771" type="curve" smooth="yes"/>
      <point x="610" y="892"/>
      <point x="535" y="943"/>
      <point x="535" y="1024" type="curve" smooth="yes"/>
      <point x="535" y="1116"/>
      <point x="657" y="1203"/>
      <point x="832" y="1203" type="curve" smooth="yes"/>
      <point x="950" y="1203"/>
      <point x="1031" y="1176"/>
      <point x="1144" y="1104" type="curve"/>
    </contour>
    <contour>
      <point x="878" y="1568" type="line"/>
      <point x="434" y="-216" type="line"/>
      <point x="574" y="-216" type="line"/>
      <point x="1018" y="1568" type="line"/>
    </contour>
  </outline>
</glyph>
<glyph name="PercentSgn" format="2">
  <advance width="1506"/>
  <unicode hex="0025"/>
  <outline>
    <contour>
      <point x="1300" y="349" type="curve" smooth="yes"/>
      <point x="1255" y="168"/>
      <point x="1204" y="113"/>
      <point x="1118" y="113" type="curve" smooth="yes"/>
      <point x="1056" y="113"/>
      <point x="1021" y="148"/>
      <point x="1021" y="235" type="curve" smooth="yes"/>
      <point x="1021" y="274"/>
      <point x="1028" y="322"/>
      <point x="1043" y="383" type="curve" smooth="yes"/>
      <point x="1088" y="564"/>
      <point x="1136" y="617"/>
      <point x="1223" y="617" type="curve" smooth="yes"/>
      <point x="1286" y="617"/>
      <point x="1322" y="582"/>
      <point x="1322" y="496" type="curve" smooth="yes"/>
      <point x="1322" y="458"/>
      <point x="1315" y="409"/>
    </contour>
    <contour>
      <point x="1468" y="361" type="curve" smooth="yes"/>
      <point x="1483" y="419"/>
      <point x="1489" y="470"/>
      <point x="1489" y="515" type="curve" smooth="yes"/>
      <point x="1489" y="677"/>
      <point x="1400" y="755"/>
      <point x="1263" y="755" type="curve" smooth="yes"/>
      <point x="1089" y="755"/>
      <point x="945" y="647"/>
      <point x="876" y="371" type="curve" smooth="yes"/>
      <point x="861" y="310"/>
      <point x="854" y="256"/>
      <point x="854" y="210" type="curve" smooth="yes"/>
      <point x="854" y="47"/>
      <point x="943" y="-25"/>
      <point x="1079" y="-25" type="curve" smooth="yes"/>
      <point x="1254" y="-25"/>
      <point x="1396" y="72"/>
    </contour>
    <contour>
      <point x="1369" y="1450" type="line"/>
      <point x="219" y="-25" type="line"/>
      <point x="397" y="-25" type="line"/>
      <point x="1545" y="1450" type="line"/>
    </contour>
    <contour>
      <point x="717" y="1044" type="curve" smooth="yes"/>
      <point x="672" y="864"/>
      <point x="621" y="809"/>
      <point x="535" y="809" type="curve" smooth="yes"/>
      <point x="474" y="809"/>
      <point x="439" y="844"/>
      <point x="439" y="930" type="curve" smooth="yes"/>
      <point x="439" y="969"/>
      <point x="446" y="1018"/>
      <point x="461" y="1079" type="curve" smooth="yes"/>
      <point x="506" y="1260"/>
      <point x="554" y="1313"/>
      <point x="641" y="1313" type="curve" smooth="yes"/>
      <point x="704" y="1313"/>
      <point x="739" y="1278"/>
      <point x="739" y="1192" type="curve" smooth="yes"/>
      <point x="739" y="1153"/>
      <point x="732" y="1105"/>
    </contour>
    <contour>
      <point x="886" y="1057" type="curve" smooth="yes"/>
      <point x="900" y="1114"/>
      <point x="907" y="1166"/>
      <point x="907" y="1210" type="curve" smooth="yes"/>
      <point x="907" y="1373"/>
      <point x="817" y="1450"/>
      <point x="680" y="1450" type="curve" smooth="yes"/>
      <point x="506" y="1450"/>
      <point x="362" y="1343"/>
      <point x="293" y="1066" type="curve" smooth="yes"/>
      <point x="278" y="1005"/>
      <point x="271" y="952"/>
      <point x="271" y="906" type="curve" smooth="yes"/>
      <point x="271" y="743"/>
      <point x="360" y="671"/>
      <point x="497" y="671" type="curve" smooth="yes"/>
      <point x="672" y="671"/>
      <point x="813" y="768"/>
    </contour>
  </outline>
</glyph>
<glyph name="Apos" format="2">
  <advance width="585"/>
  <unicode hex="0027"/>
  <outline>
    <contour>
      <point x="560" y="1024" type="line"/>
      <point x="599" y="1162"/>
      <point x="643" y="1312"/>
      <point x="732" y="1553" type="curve"/>
      <point x="527" y="1553" type="line"/>
      <point x="498" y="1312"/>
      <point x="465" y="1162"/>
      <point x="435" y="1024" type="curve"/>
    </contour>
  </outline>
</glyph>
<glyph name="LftParen" format="2">
  <advance width="775"/>
  <unicode hex="0028"/>
  <outline>
    <contour>
      <point x="895" y="1607" type="line"/>
      <point x="582" y="1415"/>
      <point x="314" y="1061"/>
      <point x="207" y="633" type="curve" smooth="yes"/>
      <point x="176" y="508"/>
      <point x="161" y="386"/>
      <point x="161" y="270" type="curve" smooth="yes"/>
      <point x="161" y="17"/>
      <point x="233" y="-211"/>
      <point x="374" y="-402" type="curve"/>
      <point x="505" y="-260" type="line"/>
      <point x="397" y="-102"/>
      <point x="348" y="75"/>
      <point x="348" y="270" type="curve" smooth="yes"/>
      <point x="348" y="385"/>
      <point x="365" y="506"/>
      <point x="397" y="633" type="curve" smooth="yes"/>
      <point x="484" y="982"/>
      <point x="647" y="1254"/>
      <point x="932" y="1455" type="curve"/>
    </contour>
  </outline>
</glyph>
<glyph name="DigitZero" format="2">
  <advance width="1180"/>
  <unicode hex="0030"/>
  <anchor x="520" y="-100" name="L"/>
  <anchor x="927" y="1530" name="U"/>
  <outline>
    <contour>
      <point x="1024" y="711" type="curve" smooth="yes"/>
      <point x="925" y="312"/>
      <point x="747" y="142"/>
      <point x="565" y="142" type="curve" smooth="yes"/>
      <point x="432" y="142"/>
      <point x="360" y="218"/>
      <point x="360" y="383" type="curve" smooth="yes"/>
      <point x="360" y="468"/>
      <point x="377" y="579"/>
      <point x="412" y="720" type="curve" smooth="yes"/>
      <point x="512" y="1120"/>
      <point x="678" y="1289"/>
      <point x="871" y="1289" type="curve" smooth="yes"/>
      <point x="1006" y="1289"/>
      <point x="1077" y="1223"/>
      <point x="1077" y="1051" type="curve" smooth="yes"/>
      <point x="1077" y="966"/>
      <point x="1060" y="854"/>
    </contour>
    <contour>
      <point x="1230" y="715" type="curve" smooth="yes"/>
      <point x="1262" y="841"/>
      <point x="1276" y="949"/>
      <point x="1276" y="1040" type="curve" smooth="yes"/>
      <point x="1276" y="1335"/>
      <point x="1124" y="1455"/>
      <point x="902" y="1455" type="curve" smooth="yes"/>
      <point x="613" y="1455"/>
      <point x="344" y="1267"/>
      <point x="206" y="716" type="curve" smooth="yes"/>
      <point x="173" y="584"/>
      <point x="158" y="474"/>
      <point x="158" y="381" type="curve" smooth="yes"/>
      <point x="158" y="104"/>
      <point x="313" y="-25"/>
      <point x="533" y="-25" type="curve" smooth="yes"/>
      <point x="804" y="-25"/>
      <point x="1086" y="138"/>
    </contour>
  </outline>
</glyph>
<glyph name="DigitThree" format="2">
  <advance width="1180"/>
  <unicode hex="0033"/>
  <anchor x="515" y="-100" name="L"/>
  <anchor x="922" y="1530" name="U"/>
  <outline>
    <contour>
      <point x="562" y="853" type="line"/>
      <point x="521" y="686" type="line"/>
      <point x="591" y="686" type="line" smooth="yes"/>
      <point x="802" y="686"/>
      <point x="944" y="606"/>
      <point x="944" y="476" type="curve" smooth="yes"/>
      <point x="944" y="268"/>
      <point x="738" y="147"/>
      <point x="551" y="147" type="curve" smooth="yes"/>
      <point x="371" y="147"/>
      <point x="260" y="227"/>
      <point x="181" y="348" type="curve"/>
      <point x="104" y="137" type="line"/>
      <point x="185" y="41"/>
      <point x="341" y="-25"/>
      <point x="518" y="-25" type="curve" smooth="yes"/>
      <point x="815" y="-25"/>
      <point x="1141" y="168"/>
      <point x="1141" y="475" type="curve" smooth="yes"/>
      <point x="1141" y="670"/>
      <point x="973" y="763"/>
      <point x="855" y="784" type="curve"/>
      <point x="1046" y="827"/>
      <point x="1266" y="955"/>
      <point x="1266" y="1163" type="curve" smooth="yes"/>
      <point x="1266" y="1338"/>
      <point x="1073" y="1455"/>
      <point x="852" y="1455" type="curve" smooth="yes"/>
      <point x="685" y="1455"/>
      <point x="536" y="1388"/>
      <point x="433" y="1299" type="curve"/>
      <point x="427" y="1132" type="line"/>
      <point x="568" y="1246"/>
      <point x="696" y="1284"/>
      <point x="850" y="1284" type="curve" smooth="yes"/>
      <point x="957" y="1284"/>
      <point x="1068" y="1236"/>
      <point x="1068" y="1137" type="curve" smooth="yes"/>
      <point x="1068" y="949"/>
      <point x="781" y="853"/>
      <point x="632" y="853" type="curve" smooth="yes"/>
    </contour>
  </outline>
</glyph>
<glyph name="DigitFour" format="2">
  <advance width="1180"/>
  <unicode hex="0034"/>
  <anchor x="522" y="-100" name="L"/>
  <anchor x="929" y="1530" name="U"/>
  <outline>
    <contour>
      <point x="1161" y="387" type="line"/>
      <point x="1199" y="539" type="line"/>
      <point x="1009" y="539" type="line"/>
      <point x="1236" y="1450" type="line"/>
      <point x="1026" y="1450" type="line"/>
      <point x="144" y="539" type="line"/>
      <point x="106" y="387" type="line"/>
      <point x="781" y="387" type="line"/>
      <point x="685" y="0" type="line"/>
      <point x="875" y="0" type="line"/>
      <point x="971" y="387" type="line"/>
    </contour>
    <contour>
      <point x="985" y="1205" type="line"/>
      <point x="819" y="539" type="line"/>
      <point x="337" y="539" type="line"/>
    </contour>
  </outline>
</glyph>
<glyph name="DigitFive" format="2">
  <advance width="1180"/>
  <unicode hex="0035"/>
  <anchor x="515" y="-100" name="L"/>
  <anchor x="922" y="1530" name="U"/>
  <outline>
    <contour>
      <point x="1296" y="1431" type="line"/>
      <point x="491" y="1431" type="line"/>
      <point x="302" y="671" type="line"/>
      <point x="438" y="718"/>
      <point x="537" y="735"/>
      <point x="643" y="735" type="curve" smooth="yes"/>
      <point x="784" y="735"/>
      <point x="933" y="660"/>
      <point x="933" y="508" type="curve" smooth="yes"/>
      <point x="933" y="273"/>
      <point x="710" y="152"/>
      <point x="497" y="152" type="curve" smooth="yes"/>
      <point x="357" y="152"/>
      <point x="263" y="195"/>
      <point x="170" y="284" type="curve"/>
      <point x="89" y="78" type="line"/>
      <point x="195" y="2"/>
      <point x="326" y="-25"/>
      <point x="481" y="-25" type="curve" smooth="yes"/>
      <point x="807" y="-25"/>
      <point x="1129" y="190"/>
      <point x="1129" y="546" type="curve" smooth="yes"/>
      <point x="1129" y="757"/>
      <point x="951" y="911"/>
      <point x="702" y="911" type="curve" smooth="yes"/>
      <point x="629" y="911"/>
      <point x="576" y="906"/>
      <point x="544" y="902" type="curve"/>
      <point x="635" y="1264" type="line"/>
      <point x="1020" y="1264" type="line" smooth="yes"/>
      <point x="1104" y="1264"/>
      <point x="1179" y="1260"/>
      <point x="1250" y="1245" type="curve"/>
    </contour>
  </outline>
</glyph>
<glyph name="DigitSix" format="2">
  <advance width="1180"/>
  <unicode hex="0036"/>
  <anchor x="515" y="-100" name="L"/>
  <anchor x="922" y="1530" name="U"/>
  <outline>
    <contour>
      <point x="1313" y="1347" type="line"/>
      <point x="1248" y="1418"/>
      <point x="1135" y="1455"/>
      <point x="1017" y="1455" type="curve" smooth="yes"/>
      <point x="481" y="1454"/>
      <point x="208" y="915"/>
      <point x="208" y="475" type="curve" smooth="yes"/>
      <point x="208" y="167"/>
      <point x="392" y="-25"/>
      <point x="623" y="-25" type="curve" smooth="yes"/>
      <point x="947" y="-25"/>
      <point x="1183" y="169"/>
      <point x="1183" y="517" type="curve" smooth="yes"/>
      <point x="1183" y="709"/>
      <point x="1029" y="887"/>
      <point x="793" y="887" type="curve" smooth="yes"/>
      <point x="636" y="887"/>
      <point x="432" y="784"/>
      <point x="317" y="633" type="curve"/>
      <point x="364" y="559" type="line"/>
      <point x="471" y="660"/>
      <point x="596" y="716"/>
      <point x="751" y="716" type="curve" smooth="yes"/>
      <point x="898" y="716"/>
      <point x="987" y="614"/>
      <point x="987" y="454" type="curve" smooth="yes"/>
      <point x="987" y="263"/>
      <point x="816" y="147"/>
      <point x="656" y="147" type="curve" smooth="yes"/>
      <point x="491" y="147"/>
      <point x="403" y="284"/>
      <point x="403" y="472" type="curve" smooth="yes"/>
      <point x="403" y="962"/>
      <point x="664" y="1284"/>
      <point x="985" y="1284" type="curve" smooth="yes"/>
      <point x="1081" y="1284"/>
      <point x="1174" y="1235"/>
      <point x="1222" y="1156" type="curve"/>
    </contour>
  </outline>
</glyph>
<glyph name="DigitEight" format="2">
  <advance width="1180"/>
  <unicode hex="0038"/>
  <anchor x="515" y="-100" name="L"/>
  <anchor x="922" y="1530" name="U"/>
  <outline>
    <contour>
      <point x="542" y="-25" type="curve" smooth="yes"/>
      <point x="839" y="-25"/>
      <point x="1160" y="170"/>
      <point x="1160" y="475" type="curve" smooth="yes"/>
      <point x="1160" y="626"/>
      <point x="1068" y="733"/>
      <point x="988" y="779" type="curve"/>
      <point x="1155" y="860"/>
      <point x="1270" y="970"/>
      <point x="1270" y="1151" type="curve" smooth="yes"/>
      <point x="1270" y="1340"/>
      <point x="1102" y="1455"/>
      <point x="901" y="1455" type="curve" smooth="yes"/>
      <point x="620" y="1455"/>
      <point x="348" y="1292"/>
      <point x="348" y="1018" type="curve" smooth="yes"/>
      <point x="348" y="891"/>
      <point x="427" y="814"/>
      <point x="483" y="779" type="curve"/>
      <point x="297" y="706"/>
      <point x="115" y="549"/>
      <point x="115" y="325" type="curve" smooth="yes"/>
      <point x="115" y="111"/>
      <point x="317" y="-25"/>
    </contour>
    <contour>
      <point x="750" y="848" type="curve" smooth="yes"/>
      <point x="628" y="848"/>
      <point x="541" y="917"/>
      <point x="541" y="1029" type="curve" smooth="yes"/>
      <point x="541" y="1205"/>
      <point x="704" y="1299"/>
      <point x="862" y="1299" type="curve" smooth="yes"/>
      <point x="985" y="1299"/>
      <point x="1076" y="1235"/>
      <point x="1076" y="1128" type="curve" smooth="yes"/>
      <point x="1076" y="955"/>
      <point x="907" y="848"/>
    </contour>
    <contour>
      <point x="564" y="142" type="curve" smooth="yes"/>
      <point x="413" y="142"/>
      <point x="322" y="225"/>
      <point x="322" y="350" type="curve" smooth="yes"/>
      <point x="322" y="557"/>
      <point x="520" y="696"/>
      <point x="712" y="696" type="curve" smooth="yes"/>
      <point x="864" y="696"/>
      <point x="961" y="602"/>
      <point x="961" y="476" type="curve" smooth="yes"/>
      <point x="961" y="266"/>
      <point x="753" y="142"/>
    </contour>
  </outline>
</glyph>
<glyph name="Colon" format="2">
  <advance width="620"/>
  <unicode hex="003A"/>
  <outline>
    <contour>
      <point x="314" y="758" type="curve" smooth="yes"/>
      <point x="314" y="696"/>
      <point x="365" y="642"/>
      <point x="430" y="642" type="curve" smooth="yes"/>
      <point x="514" y="642"/>
      <point x="590" y="712"/>
      <point x="590" y="792" type="curve" smooth="yes"/>
      <point x="590" y="854"/>
      <point x="540" y="907"/>
      <point x="476" y="907" type="curve" smooth="yes"/>
      <point x="393" y="907"/>
      <point x="314" y="837"/>
    </contour>
    <contour>
      <point x="148" y="90" type="curve" smooth="yes"/>
      <point x="148" y="28"/>
      <point x="198" y="-25"/>
      <point x="263" y="-25" type="curve" smooth="yes"/>
      <point x="347" y="-25"/>
      <point x="424" y="45"/>
      <point x="424" y="125" type="curve" smooth="yes"/>
      <point x="424" y="186"/>
      <point x="374" y="240"/>
      <point x="309" y="240" type="curve" smooth="yes"/>
      <point x="225" y="240"/>
      <point x="148" y="170"/>
    </contour>
  </outline>
</glyph>
<glyph name="LtnCapD" format="2">
  <advance width="1421"/>
  <unicode hex="0044"/>
  <anchor x="630" y="-100" name="L"/>
  <anchor x="1037" y="1530" name="U"/>
  <outline>
    <contour>
      <point x="226" y="446" type="line"/>
      <point x="176" y="252"/>
      <point x="134" y="78"/>
      <point x="100" y="0" type="curve"/>
      <point x="100" y="0"/>
      <point x="414" y="-10"/>
      <point x="542" y="-10" type="curve" smooth="yes"/>
      <point x="985" y="-10"/>
      <point x="1299" y="181"/>
      <point x="1415" y="648" type="curve" smooth="yes"/>
      <point x="1437" y="738"/>
      <point x="1447" y="819"/>
      <point x="1447" y="891" type="curve" smooth="yes"/>
      <point x="1447" y="1279"/>
      <point x="1188" y="1441"/>
      <point x="894" y="1441" type="curve" smooth="yes"/>
      <point x="759" y="1441"/>
      <point x="543" y="1437"/>
      <point x="456" y="1431" type="curve"/>
      <point x="452" y="1352"/>
      <point x="407" y="1172"/>
      <point x="359" y="980" type="curve" smooth="yes"/>
    </contour>
    <contour>
      <point x="623" y="1279" type="line"/>
      <point x="674" y="1281"/>
      <point x="764" y="1284"/>
      <point x="830" y="1284" type="curve" smooth="yes"/>
      <point x="1105" y="1284"/>
      <point x="1246" y="1140"/>
      <point x="1246" y="850" type="curve" smooth="yes"/>
      <point x="1246" y="784"/>
      <point x="1236" y="710"/>
      <point x="1216" y="629" type="curve" smooth="yes"/>
      <point x="1134" y="300"/>
      <point x="925" y="152"/>
      <point x="572" y="152" type="curve" smooth="yes"/>
      <point x="477" y="152"/>
      <point x="391" y="158"/>
      <point x="345" y="162" type="curve"/>
    </contour>
  </outline>
</glyph>
<glyph name="LtnCapG" format="2">
  <advance width="1406"/>
  <unicode hex="0047"/>
  <anchor x="685" y="0" name="H"/>
  <anchor x="660" y="-100" name="L"/>
  <anchor x="1067" y="1530" name="U"/>
  <outline>
    <contour>
      <point x="1403" y="710" type="line"/>
      <point x="863" y="710" type="line"/>
      <point x="822" y="548" type="line"/>
      <point x="1172" y="548" type="line"/>
      <point x="1090" y="220" type="line"/>
      <point x="1012" y="176"/>
      <point x="858" y="147"/>
      <point x="739" y="147" type="curve" smooth="yes"/>
      <point x="520" y="147"/>
      <point x="384" y="272"/>
      <point x="384" y="493" type="curve" smooth="yes"/>
      <point x="384" y="560"/>
      <point x="394" y="636"/>
      <point x="415" y="720" type="curve" smooth="yes"/>
      <point x="500" y="1062"/>
      <point x="747" y="1289"/>
      <point x="1052" y="1289" type="curve" smooth="yes"/>
      <point x="1195" y="1289"/>
      <point x="1335" y="1233"/>
      <point x="1425" y="1122" type="curve"/>
      <point x="1534" y="1298" type="line"/>
      <point x="1409" y="1405"/>
      <point x="1235" y="1455"/>
      <point x="1063" y="1455" type="curve" smooth="yes"/>
      <point x="680" y="1455"/>
      <point x="334" y="1195"/>
      <point x="217" y="726" type="curve" smooth="yes"/>
      <point x="195" y="639"/>
      <point x="185" y="559"/>
      <point x="185" y="486" type="curve" smooth="yes"/>
      <point x="185" y="162"/>
      <point x="406" y="-25"/>
      <point x="714" y="-25" type="curve" smooth="yes"/>
      <point x="907" y="-25"/>
      <point x="1149" y="50"/>
      <point x="1258" y="132" type="curve"/>
    </contour>
  </outline>
</glyph>
<glyph name="LtnCapK" format="2">
  <advance width="1261"/>
  <unicode hex="004B"/>
  <anchor x="210" y="0" name="H"/>
  <anchor x="610" y="-100" name="L"/>
  <anchor x="972" y="1530" name="U"/>
  <outline>
    <contour>
      <point x="1221" y="1431" type="line"/>
      <point x="406" y="689" type="line"/>
      <point x="547" y="730" type="line"/>
      <point x="660" y="725" type="line"/>
      <point x="1461" y="1431" type="line"/>
    </contour>
    <contour>
      <point x="1170" y="0" type="line"/>
      <point x="615" y="823" type="line"/>
      <point x="469" y="720" type="line"/>
      <point x="925" y="0" type="line"/>
    </contour>
    <contour>
      <point x="661" y="1431" type="line"/>
      <point x="456" y="1431" type="line"/>
      <point x="452" y="1352"/>
      <point x="413" y="1197"/>
      <point x="365" y="1005" type="curve" smooth="yes"/>
      <point x="221" y="426" type="line" smooth="yes"/>
      <point x="173" y="233"/>
      <point x="134" y="78"/>
      <point x="100" y="0" type="curve"/>
      <point x="305" y="0" type="line"/>
    </contour>
  </outline>
</glyph>
<glyph name="LtnCapN" format="2">
  <advance width="1480"/>
  <unicode hex="004E"/>
  <anchor x="1170" y="0" name="H"/>
  <anchor x="652" y="-100" name="L"/>
  <anchor x="1059" y="1530" name="U"/>
  <outline>
    <contour>
      <point x="491" y="1328" type="line"/>
      <point x="1075" y="0" type="line"/>
      <point x="1219" y="98" type="line"/>
      <point x="636" y="1431" type="line"/>
    </contour>
    <contour>
      <point x="1075" y="0" type="line"/>
      <point x="1250" y="0" type="line"/>
      <point x="1500" y="1005" type="line" smooth="yes"/>
      <point x="1548" y="1198"/>
      <point x="1588" y="1352"/>
      <point x="1621" y="1431" type="curve"/>
      <point x="1431" y="1431" type="line"/>
    </contour>
    <contour>
      <point x="636" y="1431" type="line"/>
      <point x="446" y="1431" type="line"/>
      <point x="442" y="1352"/>
      <point x="403" y="1197"/>
      <point x="355" y="1005" type="curve" smooth="yes"/>
      <point x="211" y="426" type="line" smooth="yes"/>
      <point x="163" y="233"/>
      <point x="124" y="78"/>
      <point x="90" y="0" type="curve"/>
      <point x="280" y="0" type="line"/>
    </contour>
  </outline>
</glyph>
<glyph name="LtnCapO" format="2">
  <advance width="1447"/>
  <unicode hex="004F"/>
  <anchor x="657" y="0" name="H"/>
  <anchor x="632" y="-100" name="L"/>
  <anchor x="896" y="0" name="O"/>
  <anchor x="1700" y="1200" name="R"/>
  <anchor x="1039" y="1530" name="U"/>
  <outline>
    <contour>
      <point x="719" y="147" type="curve" smooth="yes"/>
      <point x="514" y="147"/>
      <point x="386" y="300"/>
      <point x="386" y="541" type="curve" smooth="yes"/>
      <point x="386" y="871"/>
      <point x="606" y="1284"/>
      <point x="963" y="1284" type="curve" smooth="yes"/>
      <point x="1164" y="1284"/>
      <point x="1291" y="1133"/>
      <point x="1291" y="892" type="curve" smooth="yes"/>
      <point x="1291" y="563"/>
      <point x="1077" y="147"/>
    </contour>
    <contour>
      <point x="1492" y="931" type="curve" smooth="yes"/>
      <point x="1492" y="1263"/>
      <point x="1278" y="1455"/>
      <point x="1015" y="1455" type="curve" smooth="yes"/>
      <point x="599" y="1455"/>
      <point x="185" y="1036"/>
      <point x="185" y="500" type="curve" smooth="yes"/>
      <point x="185" y="167"/>
      <point x="400" y="-25"/>
      <point x="666" y="-25" type="curve" smooth="yes"/>
      <point x="1078" y="-25"/>
      <point x="1492" y="395"/>
    </contour>
  </outline>
</glyph>
<glyph name="LtnCapP" format="2">
  <advance width="1190"/>
  <unicode hex="0050"/>
  <anchor x="552" y="-100" name="L"/>
  <anchor x="959" y="1530" name="U"/>
  <outline>
    <contour>
      <point x="443" y="554" type="line"/>
      <point x="506" y="547"/>
      <point x="597" y="544"/>
      <point x="670" y="544" type="curve" smooth="yes"/>
      <point x="1058" y="544"/>
      <point x="1321" y="733"/>
      <point x="1321" y="1084" type="curve" smooth="yes"/>
      <point x="1321" y="1302"/>
      <point x="1141" y="1441"/>
      <point x="864" y="1441" type="curve" smooth="yes"/>
      <point x="651" y="1441"/>
      <point x="456" y="1431"/>
      <point x="456" y="1431" type="curve"/>
      <point x="452" y="1352"/>
      <point x="407" y="1172"/>
      <point x="359" y="980" type="curve"/>
      <point x="221" y="426" type="line" smooth="yes"/>
      <point x="173" y="233"/>
      <point x="134" y="78"/>
      <point x="100" y="0" type="curve"/>
      <point x="320" y="0" type="line"/>
      <point x="324" y="76"/>
      <point x="362" y="232"/>
      <point x="411" y="426" type="curve" smooth="yes"/>
    </contour>
    <contour>
      <point x="623" y="1279" type="line"/>
      <point x="692" y="1282"/>
      <point x="721" y="1284"/>
      <point x="815" y="1284" type="curve" smooth="yes"/>
      <point x="1036" y="1284"/>
      <point x="1121" y="1172"/>
      <point x="1121" y="1048" type="curve" smooth="yes"/>
      <point x="1121" y="845"/>
      <point x="968" y="696"/>
      <point x="693" y="696" type="curve" smooth="yes"/>
      <point x="618" y="696"/>
      <point x="542" y="698"/>
      <point x="481" y="706" type="curve"/>
    </contour>
  </outline>
</glyph>
<glyph name="LtnCapR" format="2">
  <advance width="1295"/>
  <unicode hex="0052"/>
  <anchor x="590" y="0" name="H"/>
  <anchor x="525" y="-100" name="L"/>
  <anchor x="932" y="1530" name="U"/>
  <outline>
    <contour>
      <point x="457" y="613" type="line"/>
      <point x="712" y="613" type="line" smooth="yes"/>
      <point x="1010" y="613"/>
      <point x="1303" y="784"/>
      <point x="1303" y="1114" type="curve" smooth="yes"/>
      <point x="1303" y="1326"/>
      <point x="1114" y="1441"/>
      <point x="844" y="1441" type="curve" smooth="yes"/>
      <point x="610" y="1441"/>
      <point x="456" y="1431"/>
      <point x="456" y="1431" type="curve"/>
      <point x="452" y="1352"/>
      <point x="407" y="1172"/>
      <point x="359" y="980" type="curve" smooth="yes"/>
      <point x="221" y="426" type="line"/>
      <point x="173" y="233"/>
      <point x="134" y="78"/>
      <point x="100" y="0" type="curve"/>
      <point x="320" y="0" type="line"/>
      <point x="324" y="76"/>
      <point x="363" y="233"/>
      <point x="411" y="426" type="curve"/>
    </contour>
    <contour>
      <point x="623" y="1279" type="line"/>
      <point x="677" y="1281"/>
      <point x="725" y="1284"/>
      <point x="795" y="1284" type="curve" smooth="yes"/>
      <point x="1003" y="1284"/>
      <point x="1104" y="1203"/>
      <point x="1104" y="1076" type="curve" smooth="yes"/>
      <point x="1104" y="856"/>
      <point x="921" y="764"/>
      <point x="685" y="764" type="curve" smooth="yes"/>
      <point x="495" y="764" type="line"/>
    </contour>
    <contour>
      <point x="656" y="622" type="line"/>
      <point x="930" y="0" type="line"/>
      <point x="1185" y="0" type="line"/>
      <point x="1122" y="89"/>
      <point x="864" y="602"/>
      <point x="828" y="676" type="curve"/>
    </contour>
  </outline>
</glyph>
<glyph name="LtnCapS" format="2">
  <advance width="1155"/>
  <unicode hex="0053"/>
  <anchor x="520" y="0" name="H"/>
  <anchor x="495" y="-100" name="L"/>
  <anchor x="902" y="1530" name="U"/>
  <outline>
    <contour>
      <point x="1260" y="1347" type="line"/>
      <point x="1146" y="1419"/>
      <point x="1021" y="1455"/>
      <point x="867" y="1455" type="curve" smooth="yes"/>
      <point x="549" y="1455"/>
      <point x="320" y="1303"/>
      <point x="320" y="1040" type="curve" smooth="yes"/>
      <point x="320" y="901"/>
      <point x="438" y="794"/>
      <point x="622" y="691" type="curve" smooth="yes"/>
      <point x="877" y="549"/>
      <point x="914" y="461"/>
      <point x="914" y="378" type="curve" smooth="yes"/>
      <point x="914" y="256"/>
      <point x="792" y="147"/>
      <point x="621" y="147" type="curve" smooth="yes"/>
      <point x="473" y="147"/>
      <point x="278" y="235"/>
      <point x="161" y="378" type="curve"/>
      <point x="65" y="187" type="line"/>
      <point x="178" y="73"/>
      <point x="365" y="-25"/>
      <point x="558" y="-25" type="curve" smooth="yes"/>
      <point x="852" y="-25"/>
      <point x="1114" y="115"/>
      <point x="1114" y="414" type="curve" smooth="yes"/>
      <point x="1114" y="526"/>
      <point x="1057" y="679"/>
      <point x="800" y="828" type="curve" smooth="yes"/>
      <point x="597" y="946"/>
      <point x="510" y="1005"/>
      <point x="510" y="1079" type="curve" smooth="yes"/>
      <point x="510" y="1210"/>
      <point x="659" y="1284"/>
      <point x="845" y="1284" type="curve" smooth="yes"/>
      <point x="959" y="1284"/>
      <point x="1075" y="1240"/>
      <point x="1173" y="1156" type="curve"/>
    </contour>
  </outline>
</glyph>
<glyph name="LtnCapX" format="2">
  <advance width="1305"/>
  <unicode hex="0058"/>
  <anchor x="565" y="-100" name="L"/>
  <anchor x="972" y="1530" name="U"/>
  <outline>
    <contour>
      <point x="970" y="0" type="line"/>
      <point x="1190" y="0" type="line"/>
      <point x="1148" y="80"/>
      <point x="1125" y="124"/>
      <point x="1045" y="329" type="curve" smooth="yes"/>
      <point x="611" y="1431" type="line"/>
      <point x="386" y="1431" type="line"/>
      <point x="430" y="1348"/>
      <point x="462" y="1289"/>
      <point x="541" y="1088" type="curve" smooth="yes"/>
    </contour>
    <contour>
      <point x="752" y="872" type="line"/>
      <point x="278" y="333" type="line" smooth="yes"/>
      <point x="98" y="129"/>
      <point x="53" y="84"/>
      <point x="-30" y="0" type="curve"/>
      <point x="210" y="0" type="line"/>
      <point x="750" y="622" type="line"/>
    </contour>
    <contour>
      <point x="765" y="622" type="line"/>
      <point x="1183" y="1088" type="line" smooth="yes"/>
      <point x="1360" y="1285"/>
      <point x="1425" y="1355"/>
      <point x="1506" y="1431" type="curve"/>
      <point x="1261" y="1431" type="line"/>
      <point x="767" y="872" type="line"/>
    </contour>
  </outline>
</glyph>
<glyph name="LtnCapY" format="2">
  <advance width="1300"/>
  <unicode hex="0059"/>
  <anchor x="565" y="-100" name="L"/>
  <anchor x="972" y="1530" name="U"/>
  <outline>
    <contour>
      <point x="331" y="1431" type="line"/>
      <point x="407" y="1285"/>
      <point x="446" y="1173"/>
      <point x="490" y="1044" type="curve"/>
      <point x="661" y="549" type="line"/>
      <point x="829" y="661" type="line"/>
      <point x="551" y="1431" type="line"/>
    </contour>
    <contour>
      <point x="1321" y="1431" type="line"/>
      <point x="684" y="661" type="line"/>
      <point x="796" y="549" type="line"/>
      <point x="1215" y="1044" type="line" smooth="yes"/>
      <point x="1322" y="1171"/>
      <point x="1402" y="1265"/>
      <point x="1561" y="1431" type="curve"/>
    </contour>
    <contour>
      <point x="700" y="0" type="line"/>
      <point x="704" y="78"/>
      <point x="743" y="233"/>
      <point x="791" y="426" type="curve" smooth="yes"/>
      <point x="854" y="681" type="line"/>
      <point x="664" y="681" type="line"/>
      <point x="601" y="426" type="line" smooth="yes"/>
      <point x="553" y="233"/>
      <point x="514" y="78"/>
      <point x="480" y="0" type="curve"/>
    </contour>
  </outline>
</glyph>
<glyph name="RtSqrBrac" format="2">
  <advance width="790"/>
  <unicode hex="005D"/>
  <outline>
    <contour>
      <point x="590" y="-410" type="line"/>
      <point x="590" y="1600" type="line"/>
      <point x="150" y="1600" type="line"/>
      <point x="150" y="1450" type="line"/>
      <point x="405" y="1450" type="line"/>
      <point x="405" y="-260" type="line"/>
      <point x="150" y="-260" type="line"/>
      <point x="150" y="-410" type="line"/>
    </contour>
  </outline>
</glyph>
<glyph name="LowLine" format="2">
  <advance width="1254"/>
  <unicode hex="005F"/>
  <outline>
    <contour>
      <point x="-138" y="-314" type="line"/>
      <point x="1135" y="-314" type="line"/>
      <point x="1172" y="-167" type="line"/>
      <point x="-101" y="-167" type="line"/>
    </contour>
  </outline>
</glyph>
<glyph name="LtnSmG" format="2">
  <advance width="1095"/>
  <unicode hex="0067"/>
  <anchor x="545" y="-432" name="H"/>
  <anchor x="545" y="-535" name="L"/>
  <anchor x="1095" y="1000" name="R"/>
  <anchor x="515" y="1100" name="U"/>
  <outline>
    <contour>
      <point x="330" y="395" type="line"/>
      <point x="234" y="357"/>
      <point x="180" y="275"/>
      <point x="180" y="215" type="curve" smooth="yes"/>
      <point x="180" y="121"/>
      <point x="263" y="27"/>
      <point x="545" y="-5" type="curve" smooth="yes"/>
      <point x="805" y="-35"/>
      <point x="880" y="-90"/>
      <point x="880" y="-170" type="curve" smooth="yes"/>
      <point x="880" y="-255"/>
      <point x="731" y="-360"/>
      <point x="550" y="-360" type="curve" smooth="yes"/>
      <point x="323" y="-360"/>
      <point x="215" y="-261"/>
      <point x="215" y="-180" type="curve" smooth="yes"/>
      <point x="215" y="-121"/>
      <point x="244" y="-56"/>
      <point x="465" y="20" type="curve"/>
      <point x="459" y="49"/>
      <point x="290" y="75"/>
      <point x="290" y="75" type="curve"/>
      <point x="113" y="2"/>
      <point x="30" y="-89"/>
      <point x="30" y="-200" type="curve" smooth="yes"/>
      <point x="30" y="-409"/>
      <point x="303" y="-505"/>
      <point x="535" y="-505" type="curve" smooth="yes"/>
      <point x="777" y="-505"/>
      <point x="1065" y="-375"/>
      <point x="1065" y="-160" type="curve" smooth="yes"/>
      <point x="1065" y="-8"/>
      <point x="967" y="90"/>
      <point x="670" y="125" type="curve" smooth="yes"/>
      <point x="410" y="156"/>
      <point x="345" y="198"/>
      <point x="345" y="235" type="curve" smooth="yes"/>
      <point x="345" y="271"/>
      <point x="384" y="316"/>
      <point x="500" y="350" type="curve"/>
    </contour>
    <contour>
      <point x="1050" y="1040" type="line"/>
      <point x="951" y="1033"/>
      <point x="819" y="997"/>
      <point x="730" y="940" type="curve"/>
      <point x="795" y="825" type="line"/>
      <point x="887" y="863"/>
      <point x="967" y="878"/>
      <point x="1040" y="880" type="curve"/>
    </contour>
    <contour>
      <point x="115" y="680" type="curve" smooth="yes"/>
      <point x="115" y="476"/>
      <point x="289" y="325"/>
      <point x="515" y="325" type="curve" smooth="yes"/>
      <point x="742" y="325"/>
      <point x="915" y="476"/>
      <point x="915" y="680" type="curve" smooth="yes"/>
      <point x="915" y="884"/>
      <point x="742" y="1040"/>
      <point x="515" y="1040" type="curve" smooth="yes"/>
      <point x="289" y="1040"/>
      <point x="115" y="884"/>
    </contour>
    <contour>
      <point x="285" y="680" type="curve" smooth="yes"/>
      <point x="285" y="803"/>
      <point x="382" y="895"/>
      <point x="515" y="895" type="curve" smooth="yes"/>
      <point x="649" y="895"/>
      <point x="745" y="803"/>
      <point x="745" y="680" type="curve" smooth="yes"/>
      <point x="745" y="557"/>
      <point x="649" y="465"/>
      <point x="515" y="465" type="curve" smooth="yes"/>
      <point x="382" y="465"/>
      <point x="285" y="557"/>
    </contour>
  </outline>
</glyph>
<glyph name="LtnSmI" format="2">
  <advance width="554"/>
  <unicode hex="0069"/>
  <anchor x="235" y="0" name="H"/>
  <anchor x="250" y="-100" name="L"/>
  <anchor x="455" y="0" name="O"/>
  <anchor x="745" y="1000" name="R"/>
  <anchor x="472" y="1100" name="U"/>
  <outline>
    <contour>
      <point x="361" y="1297" type="curve" smooth="yes"/>
      <point x="361" y="1237"/>
      <point x="404" y="1186"/>
      <point x="467" y="1186" type="curve" smooth="yes"/>
      <point x="552" y="1186"/>
      <point x="624" y="1259"/>
      <point x="624" y="1338" type="curve" smooth="yes"/>
      <point x="624" y="1399"/>
      <point x="578" y="1450"/>
      <point x="513" y="1450" type="curve" smooth="yes"/>
      <point x="428" y="1450"/>
      <point x="361" y="1375"/>
    </contour>
    <contour>
      <point x="335" y="1000" type="line"/>
      <point x="335" y="886"/>
      <point x="286" y="688"/>
      <point x="246" y="537" type="curve" smooth="yes"/>
      <point x="207" y="388" type="line" smooth="yes"/>
      <point x="180" y="284"/>
      <point x="165" y="172"/>
      <point x="165" y="87" type="curve" smooth="yes"/>
      <point x="165" y="53"/>
      <point x="167" y="24"/>
      <point x="172" y="0" type="curve"/>
      <point x="372" y="0" type="line"/>
      <point x="365" y="37"/>
      <point x="360" y="85"/>
      <point x="360" y="136" type="curve" smooth="yes"/>
      <point x="360" y="208"/>
      <point x="368" y="287"/>
      <point x="386" y="357" type="curve" smooth="yes"/>
      <point x="431" y="536" type="line" smooth="yes"/>
      <point x="476" y="712"/>
      <point x="525" y="912"/>
      <point x="525" y="1000" type="curve"/>
    </contour>
  </outline>
</glyph>
<glyph name="LtnSmJ" format="2">
  <advance width="602"/>
  <unicode hex="006A"/>
  <anchor x="-60" y="-500" name="L"/>
  <anchor x="510" y="1100" name="U"/>
  <outline>
    <contour>
      <point x="370" y="1000" type="line"/>
      <point x="370" y="856"/>
      <point x="288" y="374"/>
      <point x="214" y="77" type="curve" smooth="yes"/>
      <point x="152" y="-173"/>
      <point x="29" y="-295"/>
      <point x="-77" y="-295" type="curve" smooth="yes"/>
      <point x="-133" y="-295"/>
      <point x="-217" y="-264"/>
      <point x="-253" y="-229" type="curve"/>
      <point x="-328" y="-397" type="line"/>
      <point x="-278" y="-437"/>
      <point x="-170" y="-465"/>
      <point x="-114" y="-465" type="curve" smooth="yes"/>
      <point x="103" y="-465"/>
      <point x="303" y="-314"/>
      <point x="396" y="66" type="curve" smooth="yes"/>
      <point x="455" y="307"/>
      <point x="560" y="872"/>
      <point x="560" y="1000" type="curve"/>
    </contour>
    <contour>
      <point x="397" y="1297" type="curve" smooth="yes"/>
      <point x="397" y="1237"/>
      <point x="440" y="1186"/>
      <point x="503" y="1186" type="curve" smooth="yes"/>
      <point x="588" y="1186"/>
      <point x="660" y="1259"/>
      <point x="660" y="1338" type="curve" smooth="yes"/>
      <point x="660" y="1399"/>
      <point x="614" y="1450"/>
      <point x="549" y="1450" type="curve" smooth="yes"/>
      <point x="464" y="1450"/>
      <point x="397" y="1375"/>
    </contour>
  </outline>
</glyph>
<glyph name="LtnSmL" format="2">
  <advance width="565"/>
  <unicode hex="006C"/>
  <guideline x="500" y="874" angle="340"/>
  <anchor x="290" y="0" name="H"/>
  <anchor x="290" y="-100" name="L"/>
  <anchor x="550" y="1000" name="R"/>
  <anchor x="282" y="1635" name="U"/>
  <outline>
    <contour>
      <point x="375" y="1600" type="line"/>
      <point x="170" y="1600" type="line"/>
      <point x="183" y="1485"/>
      <point x="190" y="1324"/>
      <point x="190" y="1130" type="curve"/>
      <point x="190" y="0" type="line"/>
      <point x="395" y="0" type="line"/>
      <point x="382" y="109"/>
      <point x="375" y="346"/>
      <point x="375" y="475" type="curve" smooth="yes"/>
    </contour>
  </outline>
</glyph>
<glyph name="LtnSmO" format="2">
  <advance width="1133"/>
  <unicode hex="006F"/>
  <anchor x="510" y="0" name="H"/>
  <anchor x="505" y="-100" name="L"/>
  <anchor x="800" y="0" name="O"/>
  <anchor x="1330" y="1000" name="R"/>
  <anchor x="785" y="1100" name="U"/>
  <outline>
    <contour>
      <point x="142" y="344" type="curve" smooth="yes"/>
      <point x="142" y="114"/>
      <point x="306" y="-25"/>
      <point x="530" y="-25" type="curve" smooth="yes"/>
      <point x="896" y="-25"/>
      <point x="1138" y="314"/>
      <point x="1138" y="648" type="curve" smooth="yes"/>
      <point x="1138" y="879"/>
      <point x="985" y="1020"/>
      <point x="761" y="1020" type="curve" smooth="yes"/>
      <point x="387" y="1020"/>
      <point x="142" y="677"/>
    </contour>
    <contour>
      <point x="721" y="862" type="curve" smooth="yes"/>
      <point x="859" y="862"/>
      <point x="947" y="767"/>
      <point x="947" y="611" type="curve" smooth="yes"/>
      <point x="947" y="391"/>
      <point x="795" y="132"/>
      <point x="559" y="132" type="curve" smooth="yes"/>
      <point x="421" y="132"/>
      <point x="333" y="226"/>
      <point x="333" y="380" type="curve" smooth="yes"/>
      <point x="333" y="599"/>
      <point x="486" y="862"/>
    </contour>
  </outline>
</glyph>
<glyph name="LtnSmS" format="2">
  <advance width="945"/>
  <unicode hex="0073"/>
  <anchor x="435" y="0" name="H"/>
  <anchor x="440" y="-100" name="L"/>
  <anchor x="710" y="1100" name="U"/>
  <outline>
    <contour>
      <point x="990" y="941" type="line"/>
      <point x="930" y="978"/>
      <point x="815" y="1020"/>
      <point x="640" y="1020" type="curve" smooth="yes"/>
      <point x="384" y="1020"/>
      <point x="230" y="881"/>
      <point x="230" y="716" type="curve" smooth="yes"/>
      <point x="230" y="614"/>
      <point x="320" y="533"/>
      <point x="466" y="461" type="curve" smooth="yes"/>
      <point x="638" y="376"/>
      <point x="700" y="333"/>
      <point x="700" y="265" type="curve" smooth="yes"/>
      <point x="700" y="188"/>
      <point x="621" y="132"/>
      <point x="532" y="132" type="curve" smooth="yes"/>
      <point x="376" y="132"/>
      <point x="244" y="216"/>
      <point x="159" y="325" type="curve"/>
      <point x="71" y="158" type="line"/>
      <point x="160" y="60"/>
      <point x="296" y="-25"/>
      <point x="488" y="-25" type="curve" smooth="yes"/>
      <point x="713" y="-25"/>
      <point x="891" y="106"/>
      <point x="891" y="306" type="curve" smooth="yes"/>
      <point x="891" y="432"/>
      <point x="774" y="515"/>
      <point x="626" y="593" type="curve" smooth="yes"/>
      <point x="476" y="672"/>
      <point x="418" y="695"/>
      <point x="418" y="753" type="curve" smooth="yes"/>
      <point x="418" y="822"/>
      <point x="494" y="862"/>
      <point x="619" y="862" type="curve" smooth="yes"/>
      <point x="743" y="862"/>
      <point x="854" y="808"/>
      <point x="911" y="769" type="curve"/>
    </contour>
  </outline>
</glyph>
<glyph name="LtnSmT" format="2">
  <advance width="815"/>
  <unicode hex="0074"/>
  <anchor x="455" y="0" name="H"/>
  <anchor x="390" y="-100" name="L"/>
  <anchor x="1025" y="1000" name="R"/>
  <anchor x="605" y="1360" name="U"/>
  <outline>
    <contour>
      <point x="752" y="211" type="line"/>
      <point x="665" y="169"/>
      <point x="593" y="134"/>
      <point x="527" y="134" type="curve" smooth="yes"/>
      <point x="448" y="134"/>
      <point x="425" y="188"/>
      <point x="425" y="247" type="curve" smooth="yes"/>
      <point x="425" y="274"/>
      <point x="429" y="301"/>
      <point x="434" y="326" type="curve" smooth="yes"/>
      <point x="470" y="519"/>
      <point x="564" y="843"/>
      <point x="677" y="1294" type="curve"/>
      <point x="492" y="1294" type="line"/>
      <point x="377" y="841"/>
      <point x="263" y="429"/>
      <point x="243" y="301" type="curve" smooth="yes"/>
      <point x="238" y="269"/>
      <point x="236" y="240"/>
      <point x="236" y="213" type="curve" smooth="yes"/>
      <point x="236" y="41"/>
      <point x="330" y="-25"/>
      <point x="465" y="-25" type="curve" smooth="yes"/>
      <point x="535" y="-25"/>
      <point x="634" y="-6"/>
      <point x="740" y="52" type="curve"/>
    </contour>
    <contour>
      <point x="177" y="833" type="line"/>
      <point x="887" y="833" type="line"/>
      <point x="923" y="975" type="line"/>
      <point x="213" y="975" type="line"/>
    </contour>
  </outline>
</glyph>
<glyph name="LtnSmV" format="2">
  <advance width="1070"/>
  <unicode hex="0076"/>
  <anchor x="549" y="0" name="H"/>
  <anchor x="535" y="-100" name="L"/>
  <anchor x="725" y="0" name="O"/>
  <anchor x="535" y="1100" name="U"/>
  <outline>
    <contour>
      <point x="840" y="1020" type="line"/>
      <point x="535" y="200" type="line"/>
      <point x="230" y="1020" type="line"/>
      <point x="20" y="1020" type="line"/>
      <point x="75" y="905"/>
      <point x="143" y="746"/>
      <point x="175" y="665" type="curve" smooth="yes"/>
      <point x="237" y="510"/>
      <point x="440" y="0"/>
      <point x="440" y="0" type="curve"/>
      <point x="630" y="0" type="line"/>
      <point x="630" y="0"/>
      <point x="842" y="536"/>
      <point x="895" y="665" type="curve" smooth="yes"/>
      <point x="928" y="744"/>
      <point x="993" y="905"/>
      <point x="1050" y="1020" type="curve"/>
    </contour>
  </outline>
</glyph>
<glyph name="LtnSmY" format="2">
  <advance width="976"/>
  <unicode hex="0079"/>
  <anchor x="710" y="-100" name="L"/>
  <anchor x="1270" y="1000" name="R"/>
  <anchor x="630" y="1100" name="U"/>
  <outline>
    <contour>
      <point x="132" y="1000" type="line"/>
      <point x="270" y="825"/>
      <point x="398" y="406"/>
      <point x="403" y="-16" type="curve"/>
      <point x="263" y="-232"/>
      <point x="145" y="-295"/>
      <point x="64" y="-295" type="curve" smooth="yes"/>
      <point x="-2" y="-295"/>
      <point x="-69" y="-254"/>
      <point x="-102" y="-220" type="curve"/>
      <point x="-200" y="-377" type="line"/>
      <point x="-141" y="-430"/>
      <point x="-68" y="-465"/>
      <point x="23" y="-465" type="curve" smooth="yes"/>
      <point x="193" y="-465"/>
      <point x="369" y="-371"/>
      <point x="609" y="0" type="curve" smooth="yes"/>
      <point x="877" y="414"/>
      <point x="1056" y="808"/>
      <point x="1056" y="964" type="curve" smooth="yes"/>
      <point x="1056" y="978"/>
      <point x="1055" y="990"/>
      <point x="1052" y="1000" type="curve"/>
      <point x="852" y="1000" type="line"/>
      <point x="856" y="984"/>
      <point x="858" y="967"/>
      <point x="858" y="946" type="curve" smooth="yes"/>
      <point x="858" y="783"/>
      <point x="722" y="472"/>
      <point x="548" y="189" type="curve"/>
      <point x="548" y="484"/>
      <point x="447" y="866"/>
      <point x="347" y="1000" type="curve"/>
    </contour>
  </outline>
</glyph>
<glyph name="LftCurlyBrac" format="2">
  <advance width="980"/>
  <unicode hex="007B"/>
  <outline>
    <contour>
      <point x="713" y="-265" type="line"/>
      <point x="660" y="-250"/>
      <point x="526" y="-188"/>
      <point x="526" y="-158" type="curve" smooth="yes"/>
      <point x="526" y="-59"/>
      <point x="649" y="404"/>
      <point x="649" y="469" type="curve" smooth="yes"/>
      <point x="649" y="509"/>
      <point x="520" y="577"/>
      <point x="520" y="602" type="curve" smooth="yes"/>
      <point x="520" y="620"/>
      <point x="688" y="700"/>
      <point x="712" y="730" type="curve" smooth="yes"/>
      <point x="741" y="767"/>
      <point x="867" y="1326"/>
      <point x="912" y="1372" type="curve" smooth="yes"/>
      <point x="938" y="1399"/>
      <point x="1073" y="1447"/>
      <point x="1146" y="1470" type="curve"/>
      <point x="1140" y="1607" type="line"/>
      <point x="1030" y="1581"/>
      <point x="856" y="1529"/>
      <point x="805" y="1485" type="curve" smooth="yes"/>
      <point x="714" y="1406"/>
      <point x="572" y="796"/>
      <point x="540" y="764" type="curve" smooth="yes"/>
      <point x="504" y="729"/>
      <point x="300" y="633"/>
      <point x="300" y="601" type="curve" smooth="yes"/>
      <point x="300" y="560"/>
      <point x="460" y="468"/>
      <point x="460" y="432" type="curve" smooth="yes"/>
      <point x="460" y="362"/>
      <point x="355" y="-53"/>
      <point x="355" y="-219" type="curve" smooth="yes"/>
      <point x="355" y="-247"/>
      <point x="358" y="-268"/>
      <point x="365" y="-279" type="curve" smooth="yes"/>
      <point x="394" y="-323"/>
      <point x="542" y="-375"/>
      <point x="639" y="-402" type="curve"/>
    </contour>
  </outline>
</glyph>
<glyph name="RtCurlyBrac" format="2">
  <advance width="1000"/>
  <unicode hex="007D"/>
  <outline>
    <contour>
      <point x="790" y="615" type="curve" smooth="yes"/>
      <point x="790" y="647"/>
      <point x="617" y="744"/>
      <point x="590" y="780" type="curve" smooth="yes"/>
      <point x="566" y="812"/>
      <point x="576" y="1435"/>
      <point x="505" y="1515" type="curve" smooth="yes"/>
      <point x="465" y="1560"/>
      <point x="304" y="1613"/>
      <point x="200" y="1640" type="curve"/>
      <point x="160" y="1500" type="line"/>
      <point x="227" y="1477"/>
      <point x="350" y="1428"/>
      <point x="370" y="1400" type="curve" smooth="yes"/>
      <point x="403" y="1353"/>
      <point x="390" y="783"/>
      <point x="410" y="745" type="curve" smooth="yes"/>
      <point x="429" y="709"/>
      <point x="566" y="637"/>
      <point x="570" y="615" type="curve"/>
      <point x="566" y="593"/>
      <point x="429" y="521"/>
      <point x="410" y="485" type="curve" smooth="yes"/>
      <point x="390" y="447"/>
      <point x="403" y="-123"/>
      <point x="370" y="-170" type="curve" smooth="yes"/>
      <point x="350" y="-198"/>
      <point x="227" y="-247"/>
      <point x="160" y="-270" type="curve"/>
      <point x="200" y="-410" type="line"/>
      <point x="304" y="-383"/>
      <point x="465" y="-330"/>
      <point x="505" y="-285" type="curve" smooth="yes"/>
      <point x="576" y="-205"/>
      <point x="566" y="418"/>
      <point x="590" y="450" type="curve" smooth="yes"/>
      <point x="617" y="486"/>
      <point x="790" y="583"/>
    </contour>
  </outline>
</glyph>
<glyph name="VulgFracOneHalf" format="2">
  <advance width="1600"/>
  <unicode hex="00BD"/>
  <outline>
    <contour>
      <point x="1276" y="1600" type="line"/>
      <point x="205" y="-50" type="line"/>
      <point x="335" y="-50" type="line"/>
      <point x="1407" y="1600" type="line"/>
    </contour>
    <contour>
      <point x="265" y="815" type="line"/>
      <point x="80" y="815" type="line"/>
      <point x="80" y="710" type="line"/>
      <point x="575" y="710" type="line"/>
      <point x="575" y="815" type="line"/>
      <point x="395" y="815" type="line"/>
      <point x="395" y="1600" type="line"/>
      <point x="280" y="1600" type="line"/>
      <point x="70" y="1475" type="line"/>
      <point x="90" y="1365" type="line"/>
      <point x="265" y="1470" type="line"/>
    </contour>
    <contour>
      <point x="1550" y="115" type="line"/>
      <point x="1502" y="107"/>
      <point x="1408" y="105"/>
      <point x="1290" y="105" type="curve" smooth="yes"/>
      <point x="1145" y="105" type="line"/>
      <point x="1276" y="207"/>
      <point x="1510" y="438"/>
      <point x="1510" y="640" type="curve" smooth="yes"/>
      <point x="1510" y="795"/>
      <point x="1383" y="895"/>
      <point x="1239" y="895" type="curve" smooth="yes"/>
      <point x="1138" y="895"/>
      <point x="1024" y="842"/>
      <point x="975" y="775" type="curve"/>
      <point x="1005" y="665" type="line"/>
      <point x="1058" y="730"/>
      <point x="1146" y="775"/>
      <point x="1220" y="775" type="curve" smooth="yes"/>
      <point x="1306" y="775"/>
      <point x="1380" y="743"/>
      <point x="1380" y="630" type="curve" smooth="yes"/>
      <point x="1380" y="464"/>
      <point x="1138" y="227"/>
      <point x="975" y="110" type="curve"/>
      <point x="975" y="0" type="line"/>
      <point x="1550" y="0" type="line"/>
    </contour>
  </outline>
</glyph>
<glyph name="VulgFracThreeQuarters" format="2">
  <advance width="1600"/>
  <unicode hex="00BE"/>
  <outline>
    <contour>
      <point x="125" y="785" type="line"/>
      <point x="182" y="735"/>
      <point x="275" y="695"/>
      <point x="375" y="695" type="curve" smooth="yes"/>
      <point x="548" y="695"/>
      <point x="675" y="824"/>
      <point x="675" y="965" type="curve" smooth="yes"/>
      <point x="675" y="1113"/>
      <point x="560" y="1192"/>
      <point x="475" y="1200" type="curve"/>
      <point x="560" y="1211"/>
      <point x="645" y="1287"/>
      <point x="645" y="1385" type="curve" smooth="yes"/>
      <point x="645" y="1513"/>
      <point x="544" y="1605"/>
      <point x="395" y="1605" type="curve" smooth="yes"/>
      <point x="307" y="1605"/>
      <point x="235" y="1578"/>
      <point x="165" y="1525" type="curve"/>
      <point x="190" y="1420" type="line"/>
      <point x="271" y="1478"/>
      <point x="321" y="1490"/>
      <point x="385" y="1490" type="curve" smooth="yes"/>
      <point x="462" y="1490"/>
      <point x="525" y="1461"/>
      <point x="525" y="1380" type="curve" smooth="yes"/>
      <point x="525" y="1306"/>
      <point x="449" y="1245"/>
      <point x="330" y="1245" type="curve" smooth="yes"/>
      <point x="285" y="1245" type="line"/>
      <point x="285" y="1135" type="line"/>
      <point x="330" y="1135" type="line" smooth="yes"/>
      <point x="472" y="1135"/>
      <point x="550" y="1073"/>
      <point x="550" y="975" type="curve" smooth="yes"/>
      <point x="550" y="859"/>
      <point x="471" y="810"/>
      <point x="370" y="810" type="curve" smooth="yes"/>
      <point x="284" y="810"/>
      <point x="195" y="853"/>
      <point x="140" y="915" type="curve"/>
    </contour>
    <contour>
      <point x="1301" y="1600" type="line"/>
      <point x="230" y="-50" type="line"/>
      <point x="360" y="-50" type="line"/>
      <point x="1432" y="1600" type="line"/>
    </contour>
    <contour>
      <point x="1515" y="260" type="line"/>
      <point x="1515" y="365" type="line"/>
      <point x="995" y="365" type="line"/>
      <point x="1250" y="720" type="line"/>
      <point x="1250" y="0" type="line"/>
      <point x="1380" y="0" type="line"/>
      <point x="1380" y="890" type="line"/>
      <point x="1250" y="890" type="line"/>
      <point x="860" y="365" type="line"/>
      <point x="860" y="260" type="line"/>
    </contour>
  </outline>
</glyph>
<glyph name="CombGrave" format="2">
  <unicode hex="0300"/>
  <anchor x="-201" y="1635" name="U"/>
  <anchor x="-335" y="1100" name="_U"/>
  <outline>
    <contour>
      <point x="-619" y="1568" type="line"/>
      <point x="-284" y="1147" type="line"/>
      <point x="-134" y="1147" type="line"/>
      <point x="-409" y="1568" type="line"/>
    </contour>
  </outline>
</glyph>
<glyph name="Hyphen" format="2">
  <advance width="840"/>
  <unicode hex="2010"/>
  <anchor x="645" y="1100" name="U"/>
  <outline>
    <contour>
      <point x="155" y="544" type="line"/>
      <point x="855" y="544" type="line"/>
      <point x="892" y="691" type="line"/>
      <point x="192" y="691" type="line"/>
    </contour>
  </outline>
</glyph>
<glyph name="DottedCirc" format="2">
  <advance width="1086"/>
  <unicode hex="25CC"/>
  <anchor x="493" y="0" name="H"/>
  <anchor x="468" y="-100" name="L"/>
  <anchor x="750" y="0" name="O"/>
  <anchor x="743" y="1000" name="U"/>
  <outline>
    <contour>
      <point x="588" y="834" type="curve" smooth="yes"/>
      <point x="588" y="858"/>
      <point x="571" y="867"/>
      <point x="553" y="867" type="curve" smooth="yes"/>
      <point x="521" y="867"/>
      <point x="491" y="837"/>
      <point x="491" y="809" type="curve" smooth="yes"/>
      <point x="491" y="788"/>
      <point x="508" y="773"/>
      <point x="530" y="773" type="curve" smooth="yes"/>
      <point x="564" y="773"/>
      <point x="588" y="805"/>
    </contour>
    <contour>
      <point x="677" y="124" type="curve" smooth="yes"/>
      <point x="647" y="124"/>
      <point x="620" y="93"/>
      <point x="620" y="67" type="curve" smooth="yes"/>
      <point x="620" y="46"/>
      <point x="636" y="30"/>
      <point x="657" y="30" type="curve" smooth="yes"/>
      <point x="687" y="30"/>
      <point x="718" y="60"/>
      <point x="718" y="86" type="curve" smooth="yes"/>
      <point x="718" y="109"/>
      <point x="700" y="124"/>
    </contour>
    <contour>
      <point x="396" y="780" type="curve" smooth="yes"/>
      <point x="369" y="780"/>
      <point x="336" y="753"/>
      <point x="336" y="722" type="curve" smooth="yes"/>
      <point x="336" y="702"/>
      <point x="351" y="687"/>
      <point x="374" y="687" type="curve" smooth="yes"/>
      <point x="403" y="687"/>
      <point x="434" y="711"/>
      <point x="434" y="744" type="curve" smooth="yes"/>
      <point x="434" y="764"/>
      <point x="414" y="780"/>
    </contour>
    <contour>
      <point x="873" y="175" type="curve" smooth="yes"/>
      <point x="872" y="199"/>
      <point x="854" y="211"/>
      <point x="833" y="211" type="curve" smooth="yes"/>
      <point x="803" y="211"/>
      <point x="774" y="183"/>
      <point x="774" y="153" type="curve" smooth="yes"/>
      <point x="774" y="133"/>
      <point x="789" y="119"/>
      <point x="812" y="119" type="curve" smooth="yes"/>
      <point x="843" y="119"/>
      <point x="873" y="146"/>
    </contour>
    <contour>
      <point x="313" y="612" type="curve" smooth="yes"/>
      <point x="312" y="633"/>
      <point x="296" y="650"/>
      <point x="275" y="650" type="curve" smooth="yes"/>
      <point x="247" y="650"/>
      <point x="215" y="623"/>
      <point x="215" y="592" type="curve" smooth="yes"/>
      <point x="215" y="573"/>
      <point x="227" y="556"/>
      <point x="251" y="556" type="curve" smooth="yes"/>
      <point x="278" y="556"/>
      <point x="313" y="581"/>
    </contour>
    <contour>
      <point x="994" y="306" type="curve" smooth="yes"/>
      <point x="993" y="327"/>
      <point x="978" y="341"/>
      <point x="958" y="341" type="curve" smooth="yes"/>
      <point x="933" y="341"/>
      <point x="896" y="321"/>
      <point x="896" y="284" type="curve" smooth="yes"/>
      <point x="896" y="265"/>
      <point x="909" y="249"/>
      <point x="934" y="249" type="curve" smooth="yes"/>
      <point x="963" y="249"/>
      <point x="994" y="275"/>
    </contour>
    <contour>
      <point x="205" y="495" type="curve" smooth="yes"/>
      <point x="175" y="495"/>
      <point x="145" y="468"/>
      <point x="145" y="438" type="curve" smooth="yes"/>
      <point x="145" y="418"/>
      <point x="159" y="402"/>
      <point x="183" y="402" type="curve" smooth="yes"/>
      <point x="208" y="402"/>
      <point x="244" y="428"/>
      <point x="244" y="459" type="curve" smooth="yes"/>
      <point x="244" y="479"/>
      <point x="227" y="495"/>
    </contour>
    <contour>
      <point x="1026" y="496" type="curve" smooth="yes"/>
      <point x="999" y="496"/>
      <point x="965" y="469"/>
      <point x="965" y="438" type="curve" smooth="yes"/>
      <point x="965" y="418"/>
      <point x="979" y="403"/>
      <point x="1004" y="403" type="curve" smooth="yes"/>
      <point x="1033" y="403"/>
      <point x="1064" y="431"/>
      <point x="1064" y="460" type="curve" smooth="yes"/>
      <point x="1064" y="480"/>
      <point x="1048" y="496"/>
    </contour>
    <contour>
      <point x="237" y="307" type="curve" smooth="yes"/>
      <point x="237" y="327"/>
      <point x="221" y="341"/>
      <point x="199" y="341" type="curve" smooth="yes"/>
      <point x="169" y="341"/>
      <point x="138" y="314"/>
      <point x="138" y="285" type="curve" smooth="yes"/>
      <point x="138" y="263"/>
      <point x="153" y="248"/>
      <point x="175" y="248" type="curve" smooth="yes"/>
      <point x="206" y="248"/>
      <point x="237" y="278"/>
    </contour>
    <contour>
      <point x="1071" y="613" type="curve" smooth="yes"/>
      <point x="1071" y="634"/>
      <point x="1055" y="650"/>
      <point x="1034" y="650" type="curve" smooth="yes"/>
      <point x="1003" y="650"/>
      <point x="973" y="619"/>
      <point x="973" y="590" type="curve" smooth="yes"/>
      <point x="973" y="570"/>
      <point x="989" y="556"/>
      <point x="1009" y="556" type="curve" smooth="yes"/>
      <point x="1041" y="556"/>
      <point x="1071" y="585"/>
    </contour>
    <contour>
      <point x="292" y="177" type="curve" smooth="yes"/>
      <point x="292" y="197"/>
      <point x="277" y="211"/>
      <point x="253" y="211" type="curve" smooth="yes"/>
      <point x="224" y="211"/>
      <point x="194" y="181"/>
      <point x="194" y="154" type="curve" smooth="yes"/>
      <point x="194" y="134"/>
      <point x="211" y="118"/>
      <point x="232" y="118" type="curve" smooth="yes"/>
      <point x="262" y="118"/>
      <point x="292" y="148"/>
    </contour>
    <contour>
      <point x="917" y="724" type="curve" smooth="yes"/>
      <point x="917" y="704"/>
      <point x="931" y="686"/>
      <point x="954" y="686" type="curve" smooth="yes"/>
      <point x="984" y="686"/>
      <point x="1014" y="716"/>
      <point x="1014" y="745" type="curve" smooth="yes"/>
      <point x="1014" y="765"/>
      <point x="1000" y="780"/>
      <point x="977" y="780" type="curve" smooth="yes"/>
      <point x="947" y="780"/>
      <point x="917" y="753"/>
    </contour>
    <contour>
      <point x="403" y="87" type="curve" smooth="yes"/>
      <point x="403" y="107"/>
      <point x="390" y="123"/>
      <point x="367" y="123" type="curve" smooth="yes"/>
      <point x="339" y="123"/>
      <point x="305" y="96"/>
      <point x="305" y="68" type="curve" smooth="yes"/>
      <point x="305" y="49"/>
      <point x="320" y="30"/>
      <point x="343" y="30" type="curve" smooth="yes"/>
      <point x="371" y="30"/>
      <point x="403" y="56"/>
    </contour>
    <contour>
      <point x="806" y="810" type="curve" smooth="yes"/>
      <point x="806" y="791"/>
      <point x="819" y="773"/>
      <point x="842" y="773" type="curve" smooth="yes"/>
      <point x="869" y="773"/>
      <point x="903" y="799"/>
      <point x="903" y="830" type="curve" smooth="yes"/>
      <point x="903" y="850"/>
      <point x="889" y="867"/>
      <point x="866" y="867" type="curve" smooth="yes"/>
      <point x="836" y="867"/>
      <point x="806" y="839"/>
    </contour>
    <contour>
      <point x="553" y="57" type="curve" smooth="yes"/>
      <point x="553" y="78"/>
      <point x="538" y="93"/>
      <point x="516" y="93" type="curve" smooth="yes"/>
      <point x="485" y="93"/>
      <point x="456" y="65"/>
      <point x="456" y="36" type="curve" smooth="yes"/>
      <point x="456" y="16"/>
      <point x="471" y="0"/>
      <point x="493" y="0" type="curve" smooth="yes"/>
      <point x="523" y="0"/>
      <point x="553" y="27"/>
    </contour>
    <contour>
      <point x="656" y="839" type="curve" smooth="yes"/>
      <point x="656" y="819"/>
      <point x="671" y="805"/>
      <point x="693" y="805" type="curve" smooth="yes"/>
      <point x="721" y="805"/>
      <point x="754" y="830"/>
      <point x="754" y="861" type="curve" smooth="yes"/>
      <point x="754" y="882"/>
      <point x="738" y="898"/>
      <point x="716" y="898" type="curve" smooth="yes"/>
      <point x="685" y="898"/>
      <point x="656" y="868"/>
    </contour>
  </outline>
</glyph>
